<svg width="11" height="11" viewBox="0 0 11 11" fill="none" xmlns="http://www.w3.org/2000/svg">
<path d="M10.134 0.866044C9.89954 0.631668 9.58163 0.5 9.25014 0.5C8.91866 0.5 8.60075 0.631668 8.36633 0.866044L7.81538 1.417L9.583 3.18462L10.134 2.63367C10.3683 2.39925 10.5 2.08134 10.5 1.74986C10.5 1.41837 10.3683 1.10046 10.134 0.866044ZM9.07776 3.68986L7.31014 1.92224L1.52441 7.70797C1.23053 8.0017 1.01449 8.36405 0.895837 8.76225L0.514883 10.0408C0.496491 10.1025 0.495119 10.1681 0.510913 10.2305C0.526707 10.2929 0.55908 10.3499 0.604605 10.3954C0.65013 10.4409 0.707116 10.4733 0.769531 10.4891C0.831946 10.5049 0.89747 10.5035 0.95917 10.4851L2.23775 10.1042C2.63595 9.98551 2.9983 9.76947 3.29203 9.47559L9.07776 3.68986Z" fill="#8156FE"/>
</svg>
