<svg width="18" height="24" viewBox="0 0 18 24" fill="none" xmlns="http://www.w3.org/2000/svg">
<g clip-path="url(#clip0_265_24)">
<path fill-rule="evenodd" clip-rule="evenodd" d="M3.06372 6.07692C2.77639 6.07692 2.50083 6.19038 2.29766 6.39235C2.09449 6.59431 1.98035 6.86823 1.98035 7.15385V16.8462C1.98035 17.1318 2.09449 17.4057 2.29766 17.6077C2.50083 17.8096 2.77639 17.9231 3.06372 17.9231H7.39721C7.68454 17.9231 7.9601 17.8096 8.16327 17.6077C8.36644 17.4057 8.48058 17.1318 8.48058 16.8462V14.1538C8.48058 14.011 8.53765 13.8741 8.63924 13.7731C8.74083 13.6721 8.87861 13.6154 9.02227 13.6154C9.16593 13.6154 9.30371 13.6721 9.4053 13.7731C9.50689 13.8741 9.56396 14.011 9.56396 14.1538V16.8462C9.56396 17.4174 9.33568 17.9652 8.92933 18.3692C8.52299 18.7731 7.97187 19 7.39721 19H3.06372C2.48906 19 1.93794 18.7731 1.5316 18.3692C1.12525 17.9652 0.896973 17.4174 0.896973 16.8462V7.15385C0.896973 6.58261 1.12525 6.03477 1.5316 5.63085C1.93794 5.22692 2.48906 5 3.06372 5H7.39721C7.97187 5 8.52299 5.22692 8.92933 5.63085C9.33568 6.03477 9.56396 6.58261 9.56396 7.15385V9.84615C9.56396 9.98896 9.50689 10.1259 9.4053 10.2269C9.30371 10.3279 9.16593 10.3846 9.02227 10.3846C8.87861 10.3846 8.74083 10.3279 8.63924 10.2269C8.53765 10.1259 8.48058 9.98896 8.48058 9.84615V7.15385C8.48058 6.86823 8.36644 6.59431 8.16327 6.39235C7.9601 6.19038 7.68454 6.07692 7.39721 6.07692H3.06372ZM10.8062 9.46564C10.9078 9.36481 11.0455 9.30817 11.189 9.30817C11.3326 9.30817 11.4702 9.36481 11.5718 9.46564L13.7386 11.6195C13.84 11.7204 13.897 11.8573 13.897 12C13.897 12.1427 13.84 12.2796 13.7386 12.3805L11.5718 14.5344C11.5222 14.5873 11.4624 14.6297 11.396 14.6591C11.3295 14.6886 11.2578 14.7044 11.1851 14.7057C11.1123 14.7069 11.0401 14.6936 10.9726 14.6665C10.9052 14.6395 10.8439 14.5992 10.7925 14.548C10.741 14.4969 10.7005 14.436 10.6732 14.3689C10.646 14.3019 10.6326 14.2301 10.6339 14.1578C10.6352 14.0855 10.6511 14.0142 10.6807 13.9481C10.7103 13.8821 10.753 13.8226 10.8062 13.7733L12.0485 12.5385H4.14709C4.00343 12.5385 3.86565 12.4817 3.76406 12.3807C3.66248 12.2798 3.60541 12.1428 3.60541 12C3.60541 11.8572 3.66248 11.7202 3.76406 11.6193C3.86565 11.5183 4.00343 11.4615 4.14709 11.4615H12.0485L10.8062 10.2267C10.7048 10.1257 10.6478 9.98885 10.6478 9.84615C10.6478 9.70346 10.7048 9.5666 10.8062 9.46564Z" fill="#9696A2"/>
</g>
<defs>
<clipPath id="clip0_265_24">
<rect width="17" height="24" fill="white" transform="translate(0.896973)"/>
</clipPath>
</defs>
</svg>
