<svg width="59" height="99" viewBox="0 0 59 99" fill="none" xmlns="http://www.w3.org/2000/svg">
<g filter="url(#filter0_bd_33_673)">
<path fill-rule="evenodd" clip-rule="evenodd" d="M22.3113 26.75C22.3113 24.9598 23.0224 23.2429 24.2883 21.977C25.5542 20.7112 27.271 20 29.0613 20C30.8515 20 32.5684 20.7112 33.8342 21.977C35.1001 23.2429 35.8113 24.9598 35.8113 26.75V27.5C35.8113 29.623 36.6113 31.557 37.9293 33.02C38.0114 33.111 38.0699 33.2207 38.0998 33.3396C38.1297 33.4584 38.13 33.5828 38.1007 33.7018C38.0714 33.8208 38.0133 33.9308 37.9317 34.0222C37.85 34.1136 37.7472 34.1835 37.6323 34.226C36.0883 34.796 34.4723 35.216 32.8013 35.469C32.8389 35.9831 32.7701 36.4995 32.5992 36.9859C32.4283 37.4722 32.1589 37.9181 31.808 38.2957C31.457 38.6733 31.0319 38.9745 30.5593 39.1804C30.0867 39.3864 29.5768 39.4927 29.0613 39.4927C28.5457 39.4927 28.0358 39.3864 27.5632 39.1804C27.0906 38.9745 26.6655 38.6733 26.3145 38.2957C25.9636 37.9181 25.6942 37.4722 25.5233 36.9859C25.3524 36.4995 25.2836 35.9831 25.3213 35.469C23.6729 35.2192 22.0542 34.8024 20.4903 34.225C20.3754 34.1826 20.2726 34.1127 20.191 34.0215C20.1094 33.9302 20.0513 33.8203 20.0219 33.7015C19.9925 33.5826 19.9927 33.4584 20.0224 33.3396C20.0521 33.2208 20.1104 33.1111 20.1923 33.02C21.5591 31.5067 22.3143 29.5392 22.3113 27.5V26.75ZM26.8133 35.65C26.8005 35.9532 26.8491 36.2558 26.9563 36.5397C27.0635 36.8236 27.2271 37.0829 27.4371 37.3019C27.6471 37.521 27.8992 37.6953 28.1783 37.8144C28.4575 37.9335 28.7578 37.9948 29.0613 37.9948C29.3647 37.9948 29.665 37.9335 29.9442 37.8144C30.2233 37.6953 30.4754 37.521 30.6854 37.3019C30.8954 37.0829 31.059 36.8236 31.1662 36.5397C31.2734 36.2558 31.322 35.9532 31.3093 35.65C29.8136 35.7847 28.3089 35.7847 26.8133 35.65Z" fill="#010102" fill-opacity="0.33" shape-rendering="crispEdges"/>
</g>
<defs>
<filter id="filter0_bd_33_673" x="-73" y="-73" width="204.122" height="205.493" filterUnits="userSpaceOnUse" color-interpolation-filters="sRGB">
<feFlood flood-opacity="0" result="BackgroundImageFix"/>
<feGaussianBlur in="BackgroundImageFix" stdDeviation="28"/>
<feComposite in2="SourceAlpha" operator="in" result="effect1_backgroundBlur_33_673"/>
<feColorMatrix in="SourceAlpha" type="matrix" values="0 0 0 0 0 0 0 0 0 0 0 0 0 0 0 0 0 0 127 0" result="hardAlpha"/>
<feOffset/>
<feGaussianBlur stdDeviation="46.5"/>
<feComposite in2="hardAlpha" operator="out"/>
<feColorMatrix type="matrix" values="0 0 0 0 0.0845278 0 0 0 0 0.135742 0 0 0 0 0.596667 0 0 0 0.14 0"/>
<feBlend mode="normal" in2="effect1_backgroundBlur_33_673" result="effect2_dropShadow_33_673"/>
<feBlend mode="normal" in="SourceGraphic" in2="effect2_dropShadow_33_673" result="shape"/>
</filter>
</defs>
</svg>
