<svg width="64" height="74" viewBox="0 0 64 74" fill="none" xmlns="http://www.w3.org/2000/svg">
<mask id="path-1-outside-1_3_284" maskUnits="userSpaceOnUse" x="0" y="0" width="64" height="74" fill="black">
<rect fill="white" width="64" height="74"/>
<path fill-rule="evenodd" clip-rule="evenodd" d="M11.9197 49.1999L28.0174 67.2932C30.2468 69.799 34.1632 69.799 36.3927 67.2932L52.4904 49.1999C68.067 31.6924 55.6389 4 32.205 4C8.77116 4 -3.65693 31.6924 11.9197 49.1999ZM32.205 42C39.1086 42 44.705 36.4036 44.705 29.5C44.705 22.5964 39.1086 17 32.205 17C25.3015 17 19.705 22.5964 19.705 29.5C19.705 36.4036 25.3015 42 32.205 42Z"/>
</mask>
<path fill-rule="evenodd" clip-rule="evenodd" d="M11.9197 49.1999L28.0174 67.2932C30.2468 69.799 34.1632 69.799 36.3927 67.2932L52.4904 49.1999C68.067 31.6924 55.6389 4 32.205 4C8.77116 4 -3.65693 31.6924 11.9197 49.1999ZM32.205 42C39.1086 42 44.705 36.4036 44.705 29.5C44.705 22.5964 39.1086 17 32.205 17C25.3015 17 19.705 22.5964 19.705 29.5C19.705 36.4036 25.3015 42 32.205 42Z" fill="#FF4F4F"/>
<path d="M28.0174 67.2932L25.0289 69.952H25.0289L28.0174 67.2932ZM11.9197 49.1999L14.9081 46.5411L11.9197 49.1999ZM36.3927 67.2932L33.4043 64.6344V64.6344L36.3927 67.2932ZM52.4904 49.1999L55.4788 51.8588V51.8587L52.4904 49.1999ZM32.205 4L32.205 0H32.205V4ZM31.0058 64.6344L14.9081 46.5411L8.93124 51.8587L25.0289 69.952L31.0058 64.6344ZM33.4043 64.6344C32.7658 65.352 31.6442 65.352 31.0058 64.6344L25.0289 69.952C28.8494 74.2461 35.5606 74.2461 39.3811 69.952L33.4043 64.6344ZM49.5019 46.5411L33.4043 64.6344L39.3811 69.952L55.4788 51.8588L49.5019 46.5411ZM32.205 8C52.1866 8 62.7838 31.6127 49.5019 46.5411L55.4788 51.8587C73.3501 31.772 59.0911 4.05312e-06 32.205 0L32.205 8ZM14.9081 46.5411C1.62622 31.6127 12.2234 8 32.205 8V0C5.3189 -2.38419e-06 -8.94008 31.772 8.93124 51.8587L14.9081 46.5411ZM40.705 29.5C40.705 34.1944 36.8994 38 32.205 38V46C41.3177 46 48.705 38.6127 48.705 29.5H40.705ZM32.205 21C36.8994 21 40.705 24.8056 40.705 29.5H48.705C48.705 20.3873 41.3177 13 32.205 13V21ZM23.705 29.5C23.705 24.8056 27.5106 21 32.205 21V13C23.0923 13 15.705 20.3873 15.705 29.5H23.705ZM32.205 38C27.5106 38 23.705 34.1944 23.705 29.5H15.705C15.705 38.6127 23.0923 46 32.205 46V38Z" fill="white" fill-opacity="0.5" mask="url(#path-1-outside-1_3_284)"/>
</svg>
