<svg width="18" height="24" viewBox="0 0 18 24" fill="none" xmlns="http://www.w3.org/2000/svg">
<g clip-path="url(#clip0_265_8)">
<g filter="url(#filter0_bd_265_8)">
<path d="M12.3967 17.3994C12.3943 17.4012 12.3906 17.4035 12.3853 17.4057C10.6651 18.1286 8.79288 18.5023 6.89759 18.5H6.89697C4.93747 18.5 3.07808 18.1081 1.40881 17.4058C1.40347 17.4035 1.39972 17.4012 1.39722 17.3994C1.42274 16.1059 2.00016 14.863 3.02202 13.9409C4.04854 13.0146 5.43975 12.489 6.89697 12.489C8.3542 12.489 9.7454 13.0146 10.7719 13.9409C11.7938 14.863 12.3712 16.1059 12.3967 17.3994ZM4.1239 8C4.1239 7.35171 4.40448 6.72015 4.9204 6.24727C5.43778 5.77306 6.14813 5.5 6.89697 5.5C7.64582 5.5 8.35616 5.77306 8.87355 6.24727C9.38947 6.72015 9.67005 7.35171 9.67005 8C9.67005 8.64829 9.38947 9.27984 8.87355 9.75272C8.35616 10.2269 7.64582 10.5 6.89697 10.5C6.14813 10.5 5.43778 10.2269 4.9204 9.75272C4.40448 9.27984 4.1239 8.64829 4.1239 8Z" stroke="#9696A2" shape-rendering="crispEdges"/>
</g>
</g>
<defs>
<filter id="filter0_bd_265_8" x="-92.103" y="-88" width="198" height="200" filterUnits="userSpaceOnUse" color-interpolation-filters="sRGB">
<feFlood flood-opacity="0" result="BackgroundImageFix"/>
<feGaussianBlur in="BackgroundImageFix" stdDeviation="28"/>
<feComposite in2="SourceAlpha" operator="in" result="effect1_backgroundBlur_265_8"/>
<feColorMatrix in="SourceAlpha" type="matrix" values="0 0 0 0 0 0 0 0 0 0 0 0 0 0 0 0 0 0 127 0" result="hardAlpha"/>
<feOffset/>
<feGaussianBlur stdDeviation="46.5"/>
<feComposite in2="hardAlpha" operator="out"/>
<feColorMatrix type="matrix" values="0 0 0 0 0.0845278 0 0 0 0 0.135742 0 0 0 0 0.596667 0 0 0 0.14 0"/>
<feBlend mode="normal" in2="effect1_backgroundBlur_265_8" result="effect2_dropShadow_265_8"/>
<feBlend mode="normal" in="SourceGraphic" in2="effect2_dropShadow_265_8" result="shape"/>
</filter>
<clipPath id="clip0_265_8">
<rect width="17" height="24" fill="white" transform="translate(0.896973)"/>
</clipPath>
</defs>
</svg>
