<svg width="10" height="10" viewBox="0 0 10 10" fill="none" xmlns="http://www.w3.org/2000/svg">
<path d="M9.63396 0.366044C9.39954 0.131668 9.08163 0 8.75014 0C8.41866 0 8.10075 0.131668 7.86633 0.366044L7.31538 0.916997L9.083 2.68462L9.63396 2.13367C9.86833 1.89925 10 1.58134 10 1.24986C10 0.91837 9.86833 0.600459 9.63396 0.366044ZM8.57776 3.18986L6.81014 1.42224L1.02441 7.20797C0.730528 7.5017 0.514493 7.86405 0.395837 8.26225L0.0148832 9.54083C-0.00350918 9.60253 -0.00488094 9.66805 0.0109131 9.73047C0.0267072 9.79288 0.0590796 9.84987 0.104605 9.89539C0.15013 9.94092 0.207116 9.97329 0.269531 9.98909C0.331946 10.0049 0.39747 10.0035 0.45917 9.98512L1.73775 9.60416C2.13595 9.48551 2.4983 9.26947 2.79203 8.97559L8.57776 3.18986Z" fill="#8156FE"/>
</svg>
